<?xml version="1.0" encoding="utf-8"?>
<!-- Generator: Adobe Illustrator 19.2.1, SVG Export Plug-In . SVG Version: 6.00 Build 0)  -->
<svg version="1.1" id="Capa_1" xmlns="http://www.w3.org/2000/svg" xmlns:xlink="http://www.w3.org/1999/xlink" x="0px" y="0px"
	 viewBox="0 0 250.6 250.6" style="enable-background:new 0 0 250.6 250.6;" xml:space="preserve">
<style type="text/css">
	.st0{fill:#FCFAFA;}
</style>
<path class="st0" d="M23,220.3h204.5c12.7,0,23-10.3,23-23V53.3c0-12.7-10.3-23-23-23H23c-12.7,0-23,10.3-23,23v143.9
	C0,210,10.3,220.3,23,220.3z M15,53.3c0-4.4,3.6-8,8-8h204.5c4.4,0,8,3.6,8,8v143.9c0,4.4-3.6,8-8,8H23c-4.4,0-8-3.6-8-8V53.3z
	 M44.7,194.7h-15V56.5l93.7,60.8c1.1,0.7,2.6,0.7,3.7,0l93.7-60.8v138.1h-15V84.2l-70.5,45.8c-3,1.9-6.5,3-10,3s-7-1-10-3L44.7,84.2
	V194.7z"/>
</svg>
