<?xml version="1.0" encoding="utf-8"?>
<!-- Generator: Adobe Illustrator 19.2.1, SVG Export Plug-In . SVG Version: 6.00 Build 0)  -->
<svg version="1.1" id="Capa_1" xmlns="http://www.w3.org/2000/svg" xmlns:xlink="http://www.w3.org/1999/xlink" x="0px" y="0px"
	 viewBox="0 0 550.1 550.1" style="enable-background:new 0 0 550.1 550.1;" xml:space="preserve">
<style type="text/css">
	.st0{fill:#FFFFFF;}
</style>
<g>
	<g>
		<path class="st0" d="M208.9,66.1v54.6c0,5.9,4.8,10.7,10.7,10.7s10.7-4.8,10.7-10.7V66.1c0-5.9-4.8-10.7-10.7-10.7
			S208.9,60.2,208.9,66.1z"/>
		<path class="st0" d="M219.6,418.6c-5.9,0-10.7,4.8-10.7,10.7V484c0,5.9,4.8,10.7,10.7,10.7s10.7-4.8,10.7-10.7v-54.6
			C230.3,423.4,225.6,418.6,219.6,418.6z"/>
		<path class="st0" d="M76.1,275.1c0-5.9-4.8-10.7-10.7-10.7H10.7c-5.9,0-10.7,4.8-10.7,10.7c0,5.9,4.8,10.7,10.7,10.7h54.6
			C71.3,285.8,76.1,281,76.1,275.1z"/>
		<path class="st0" d="M103,376.6l-38.6,38.6c-4.2,4.2-4.2,11,0,15.1c2.1,2.1,4.8,3.1,7.6,3.1s5.5-1,7.6-3.1l38.6-38.6
			c4.2-4.2,4.2-11,0-15.1C113.9,372.4,107.2,372.4,103,376.6z"/>
		<path class="st0" d="M64.3,119.8c-4.2,4.2-4.2,11,0,15.1l38.6,38.6c2.1,2.1,4.8,3.1,7.6,3.1s5.5-1,7.6-3.1c4.2-4.2,4.2-11,0-15.1
			l-38.6-38.6C75.3,115.6,68.5,115.6,64.3,119.8z"/>
		<path class="st0" d="M256.2,156.4c-11.4-3.4-23.4-5.3-35.8-5.3c-68.8,0-124.5,55.7-124.5,124.5c0,68.8,55.7,124.5,124.5,124.5
			c13.1,0,25.8-2,37.7-5.8c-28.6-31.9-46.1-73.9-46.1-120C212,229.2,228.7,188,256.2,156.4z"/>
		<path class="st0" d="M391.8,115.9c-45,0-85.6,18.8-114.4,49c-27.2,28.4-43.9,66.9-43.9,109.4c0,43.3,17.4,82.6,45.6,111.2
			c28.7,29.1,68.6,47.2,112.7,47.2c87.5,0,158.4-70.9,158.4-158.4S479.2,115.9,391.8,115.9z"/>
	</g>
</g>
</svg>
